# xmcd CD database file
#
# Track frame offsets:
#	150
#	25124
#	47330
#	70167
#	80899
#	96269
#	126090
#	145599
#	160931
#	180541
#
# Disc length: 2701 seconds
#
# Revision: 0
# Processed by: cddbd v1.5.1PL2 Copyright (c) Steve Scherf et al.
# Submitted via: CDex 1.51
#
DISCID=7d0a8b0a
DTITLE=エンキ - 大地の響　弦奏紀行?
DYEAR=2005
DGENRE=Instrumental
TTITLE0=浪漫ロード
TTITLE1=シューベルトのセレナーデ
TTITLE2=ウイグルの旅
TTITLE3=紅い牡丹
TTITLE4=月の沙漠
TTITLE5=大地の響
TTITLE6=チャルダッシュ
TTITLE7=ゴットファーザー
TTITLE8=パイプライン
TTITLE9=シクラメンのかほり
EXTD=YEAR: 2005
EXTT0=
EXTT1=
EXTT2=
EXTT3=
EXTT4=
EXTT5=
EXTT6=
EXTT7=
EXTT8=
EXTT9=
PLAYORDER=
